<?xml version="1.0" encoding="UTF-8"?>
<svg xmlns="http://www.w3.org/2000/svg" xmlns:xlink="http://www.w3.org/1999/xlink" width="948px" height="160px" viewBox="0 0 950 160" version="1.1">
<g id="surface1">
<path style="fill:none;stroke-width:2;stroke-linecap:butt;stroke-linejoin:miter;stroke:rgb(76.470588%,81.176471%,87.45098%);stroke-opacity:1;stroke-miterlimit:4;" d="M 12 1 L 938 1 C 944.074219 1 949 5.925781 949 12 L 949 148 C 949 154.074219 944.074219 159 938 159 L 12 159 C 5.925781 159 1 154.074219 1 148 L 1 12 C 1 5.925781 5.925781 1 12 1 Z M 12 1 "/>
<path style=" stroke:none;fill-rule:nonzero;fill:rgb(76.470588%,81.176471%,87.45098%);fill-opacity:1;" d="M 86 81 C 86 81.550781 86.449219 82 87 82 C 87.550781 82 88 81.550781 88 81 Z M 86 2 L 86 81 L 88 81 L 88 2 Z M 88 115 C 88 114.449219 87.550781 114 87 114 C 86.449219 114 86 114.449219 86 115 Z M 88 158 L 88 115 L 86 115 L 86 158 Z M 174 115 C 174 114.449219 173.550781 114 173 114 C 172.449219 114 172 114.449219 172 115 Z M 174 158 L 174 115 L 172 115 L 172 158 Z M 260 115 C 260 114.449219 259.550781 114 259 114 C 258.449219 114 258 114.449219 258 115 Z M 260 158 L 260 115 L 258 115 L 258 158 Z M 346 115 C 346 114.449219 345.550781 114 345 114 C 344.449219 114 344 114.449219 344 115 Z M 346 158 L 346 115 L 344 115 L 344 158 Z M 432 115 C 432 114.449219 431.550781 114 431 114 C 430.449219 114 430 114.449219 430 115 Z M 432 158 L 432 115 L 430 115 L 430 158 Z M 518 115 C 518 114.449219 517.550781 114 517 114 C 516.449219 114 516 114.449219 516 115 Z M 518 158 L 518 115 L 516 115 L 516 158 Z M 604 115 C 604 114.449219 603.550781 114 603 114 C 602.449219 114 602 114.449219 602 115 Z M 604 158 L 604 115 L 602 115 L 602 158 Z M 690 115 C 690 114.449219 689.550781 114 689 114 C 688.449219 114 688 114.449219 688 115 Z M 690 158 L 690 115 L 688 115 L 688 158 Z M 776 115 C 776 114.449219 775.550781 114 775 114 C 774.449219 114 774 114.449219 774 115 Z M 776 158 L 776 115 L 774 115 L 774 158 Z M 862 115 C 862 114.449219 861.550781 114 861 114 C 860.449219 114 860 114.449219 860 115 Z M 862 158 L 862 115 L 860 115 L 860 158 Z M 172 81 C 172 81.550781 172.449219 82 173 82 C 173.550781 82 174 81.550781 174 81 Z M 172 2 L 172 81 L 174 81 L 174 2 Z M 258 81 C 258 81.550781 258.449219 82 259 82 C 259.550781 82 260 81.550781 260 81 Z M 258 2 L 258 81 L 260 81 L 260 2 Z M 344 81 C 344 81.550781 344.449219 82 345 82 C 345.550781 82 346 81.550781 346 81 Z M 344 2 L 344 81 L 346 81 L 346 2 Z M 430 81 C 430 81.550781 430.449219 82 431 82 C 431.550781 82 432 81.550781 432 81 Z M 430 2 L 430 81 L 432 81 L 432 2 Z M 516 81 C 516 81.550781 516.449219 82 517 82 C 517.550781 82 518 81.550781 518 81 Z M 516 2 L 516 81 L 518 81 L 518 2 Z M 602 81 C 602 81.550781 602.449219 82 603 82 C 603.550781 82 604 81.550781 604 81 Z M 602 2 L 602 81 L 604 81 L 604 2 Z M 688 81 C 688 81.550781 688.449219 82 689 82 C 689.550781 82 690 81.550781 690 81 Z M 688 2 L 688 81 L 690 81 L 690 2 Z M 774 81 C 774 81.550781 774.449219 82 775 82 C 775.550781 82 776 81.550781 776 81 Z M 774 2 L 774 81 L 776 81 L 776 2 Z M 860 81 C 860 81.550781 860.449219 82 861 82 C 861.550781 82 862 81.550781 862 81 Z M 860 2 L 860 81 L 862 81 L 862 2 Z M 860 2 "/>
<path style=" stroke:none;fill-rule:nonzero;fill:rgb(100%,100%,100%);fill-opacity:1;" d="M 19 156 L 41 156 L 41 160 L 19 160 Z M 19 156 "/>
<path style=" stroke:none;fill-rule:evenodd;fill:rgb(76.470588%,81.176471%,87.45098%);fill-opacity:1;" d="M 41 152 C 41.550781 152 42 152.449219 42 153 L 42 159 C 42 159.550781 41.550781 160 41 160 C 40.449219 160 40 159.550781 40 159 L 40 153 C 40 152.449219 40.449219 152 41 152 Z M 19 152 C 19.550781 152 20 152.449219 20 153 L 20 159 C 20 159.550781 19.550781 160 19 160 C 18.449219 160 18 159.550781 18 159 L 18 153 C 18 152.449219 18.449219 152 19 152 Z M 30.753906 148.335938 C 30.5625 148.121094 30.289062 148 30.003906 148 C 29.71875 148 29.445312 148.121094 29.257812 148.335938 L 27.214844 150.632812 C 26.996094 150.875 26.945312 151.21875 27.078125 151.515625 C 27.210938 151.8125 27.503906 152 27.828125 152 L 29 152 L 29 159 C 29 159.550781 29.449219 160 30 160 C 30.550781 160 31 159.550781 31 159 L 31 152 L 32.183594 152 C 32.503906 152 32.796875 151.808594 32.929688 151.515625 C 33.0625 151.21875 33.011719 150.875 32.796875 150.632812 Z M 30.753906 148.335938 "/>
<path style=" stroke:none;fill-rule:nonzero;fill:rgb(100%,100%,100%);fill-opacity:1;" d="M 19 4 L 41 4 L 41 0 L 19 0 Z M 19 4 "/>
<path style=" stroke:none;fill-rule:evenodd;fill:rgb(76.470588%,81.176471%,87.45098%);fill-opacity:1;" d="M 41 8 C 41.550781 8 42 7.550781 42 7 L 42 1 C 42 0.449219 41.550781 0 41 0 C 40.449219 0 40 0.449219 40 1 L 40 7 C 40 7.550781 40.449219 8 41 8 Z M 19 8 C 19.550781 8 20 7.550781 20 7 L 20 1 C 20 0.449219 19.550781 0 19 0 C 18.449219 0 18 0.449219 18 1 L 18 7 C 18 7.550781 18.449219 8 19 8 Z M 30.753906 11.664062 C 30.5625 11.878906 30.289062 12 30.003906 12 C 29.71875 12 29.445312 11.878906 29.257812 11.664062 L 27.214844 9.367188 C 26.996094 9.125 26.945312 8.78125 27.078125 8.484375 C 27.210938 8.1875 27.503906 8 27.828125 8 L 29 8 L 29 1 C 29 0.449219 29.449219 0 30 0 C 30.550781 0 31 0.449219 31 1 L 31 8 L 32.183594 8 C 32.503906 8 32.796875 8.191406 32.929688 8.484375 C 33.0625 8.78125 33.011719 9.125 32.796875 9.367188 Z M 30.753906 11.664062 "/>
</g>
</svg>
