<svg xmlns="http://www.w3.org/2000/svg" width="1167" height="212" fill="none"><rect width="1163" height="204" x="2" y="4" stroke="#C3CFDF" stroke-width="4" rx="14"/><path fill="#C3CFDF" d="M1078 87c0 .552.45 1 1 1s1-.448 1-1h-2Zm0-81v81h2V6h-2ZM89 90a1 1 0 1 0 2 0h-2Zm0-86v86h2V4h-2ZM549 82a1 1 0 0 0 2 0h-2Zm0-78v78h2V4h-2ZM551 130a1 1 0 0 0-2 0h2Zm0 80v-80h-2v80h2Z"/><path fill="#fff" d="M22.958 206h21.083v4H22.958z"/><path fill="#C3CFDF" fill-rule="evenodd" d="M44.042 202c.529 0 .958.448.958 1v6c0 .552-.43 1-.958 1-.53 0-.959-.448-.959-1v-6c0-.552.43-1 .959-1Zm-21.084 0c.53 0 .959.448.959 1v6c0 .552-.43 1-.959 1-.529 0-.958-.448-.958-1v-6c0-.552.43-1 .958-1ZM34.221 198.336a.934.934 0 0 0-1.434 0l-1.957 2.297c-.452.53-.091 1.367.588 1.367h1.124v7.042a.958.958 0 0 0 1.916 0V202h1.133c.679 0 1.039-.837.588-1.367l-1.958-2.297Z" clip-rule="evenodd"/><path fill="#fff" d="M1124.96 206h21.083v4h-21.083z"/><path fill="#C3CFDF" fill-rule="evenodd" d="M1146.04 202c.53 0 .96.448.96 1v6c0 .552-.43 1-.96 1s-.96-.448-.96-1v-6c0-.552.43-1 .96-1Zm-21.08 0c.53 0 .96.448.96 1v6c0 .552-.43 1-.96 1s-.96-.448-.96-1v-6c0-.552.43-1 .96-1ZM1136.22 198.336a.929.929 0 0 0-1.43 0l-1.96 2.297c-.45.53-.09 1.367.59 1.367h1.12v7.042a.96.96 0 0 0 1.92 0V202h1.13c.68 0 1.04-.837.59-1.367l-1.96-2.297Z" clip-rule="evenodd"/><path fill="#fff" d="M22.958 6h21.083V2H22.958z"/><path fill="#C3CFDF" fill-rule="evenodd" d="M44.042 10c.529 0 .958-.448.958-1V3c0-.552-.43-1-.958-1-.53 0-.959.448-.959 1v6c0 .552.43 1 .959 1Zm-21.084 0c.53 0 .959-.448.959-1V3c0-.552-.43-1-.959-1C22.43 2 22 2.448 22 3v6c0 .552.43 1 .958 1ZM34.221 13.664a.934.934 0 0 1-1.434 0l-1.957-2.297c-.452-.53-.091-1.367.588-1.367h1.124V2.958a.958.958 0 0 1 1.916 0V10h1.133c.679 0 1.039.837.588 1.367l-1.958 2.297Z" clip-rule="evenodd"/><path fill="#fff" d="M1146.04 6h-21.083V2h21.083z"/><path fill="#C3CFDF" fill-rule="evenodd" d="M1124.96 10c-.53 0-.96-.448-.96-1V3c0-.552.43-1 .96-1s.96.448.96 1v6c0 .552-.43 1-.96 1Zm21.08 0c-.53 0-.96-.448-.96-1V3c0-.552.43-1 .96-1s.96.448.96 1v6c0 .552-.43 1-.96 1ZM1134.78 13.664a.929.929 0 0 0 1.43 0l1.96-2.297c.45-.53.09-1.367-.59-1.367h-1.12V2.958a.96.96 0 0 0-1.92 0V10h-1.13c-.68 0-1.04.837-.59 1.367l1.96 2.297Z" clip-rule="evenodd"/><path fill="#C3CFDF" d="M1078 206c0 .552.45 1 1 1s1-.448 1-1h-2Zm0-81v81h2v-81h-2ZM91 158a1 1 0 0 0-2 0h2Zm0 49v-49h-2v49h2Z"/></svg>