<?xml version="1.0" encoding="UTF-8"?>
<svg xmlns="http://www.w3.org/2000/svg" xmlns:xlink="http://www.w3.org/1999/xlink" width="850px" height="179px" viewBox="0 0 848 179" version="1.1">
<g id="surface1">
<path style="fill:none;stroke-width:4;stroke-linecap:butt;stroke-linejoin:miter;stroke:rgb(76.470588%,81.176471%,87.45098%);stroke-opacity:1;stroke-miterlimit:4;" d="M 16.000263 2.000121 L 970.999892 2.000121 C 978.732627 2.000121 984.99983 8.26822 984.99983 16.000997 L 984.99983 191.999011 C 984.99983 199.731789 978.732627 205.999887 970.999892 205.999887 L 16.000263 205.999887 C 8.267528 205.999887 2.000326 199.731789 2.000326 191.999011 L 2.000326 16.000997 C 2.000326 8.26822 8.267528 2.000121 16.000263 2.000121 Z M 16.000263 2.000121 " transform="matrix(0.858263,0,0,0.858763,0.447257,0.188619)"/>
<path style=" stroke:none;fill-rule:nonzero;fill:rgb(76.470588%,81.176471%,87.45098%);fill-opacity:1;" d="M 105.15625 74.898438 C 105.15625 75.375 105.539062 75.761719 106.015625 75.761719 C 106.488281 75.761719 106.875 75.375 106.875 74.898438 Z M 105.15625 1.90625 L 105.15625 74.898438 L 106.875 74.898438 L 106.875 1.90625 Z M 106.875 135.015625 C 106.875 134.539062 106.488281 134.15625 106.015625 134.15625 C 105.539062 134.15625 105.15625 134.539062 105.15625 135.015625 Z M 106.875 177.09375 L 106.875 135.015625 L 105.15625 135.015625 L 105.15625 177.09375 Z M 772.027344 75.761719 C 772.027344 76.230469 772.410156 76.621094 772.882812 76.621094 C 773.355469 76.621094 773.746094 76.230469 773.746094 75.761719 Z M 772.027344 1.90625 L 772.027344 75.761719 L 773.746094 75.761719 L 773.746094 1.90625 Z M 773.746094 103.238281 C 773.746094 102.769531 773.355469 102.378906 772.882812 102.378906 C 772.410156 102.378906 772.027344 102.769531 772.027344 103.238281 Z M 773.746094 177.09375 L 773.746094 103.238281 L 772.027344 103.238281 L 772.027344 177.09375 Z M 773.746094 177.09375 "/>
<path style=" stroke:none;fill-rule:nonzero;fill:rgb(100%,100%,100%);fill-opacity:1;" d="M 16.753906 175.375 L 35.636719 175.375 L 35.636719 178.8125 L 16.753906 178.8125 Z M 16.753906 175.375 "/>
<path style=" stroke:none;fill-rule:evenodd;fill:rgb(76.470588%,81.176471%,87.45098%);fill-opacity:1;" d="M 35.636719 171.941406 C 36.109375 171.941406 36.492188 172.324219 36.492188 172.800781 L 36.492188 177.953125 C 36.492188 178.425781 36.109375 178.8125 35.636719 178.8125 C 35.164062 178.8125 34.777344 178.425781 34.777344 177.953125 L 34.777344 172.800781 C 34.777344 172.324219 35.164062 171.941406 35.636719 171.941406 Z M 16.753906 171.941406 C 17.230469 171.941406 17.613281 172.324219 17.613281 172.800781 L 17.613281 177.953125 C 17.613281 178.425781 17.230469 178.8125 16.753906 178.8125 C 16.28125 178.8125 15.898438 178.425781 15.898438 177.953125 L 15.898438 172.800781 C 15.898438 172.324219 16.28125 171.941406 16.753906 171.941406 Z M 26.84375 168.792969 C 26.679688 168.609375 26.445312 168.503906 26.195312 168.503906 C 25.953125 168.503906 25.722656 168.609375 25.554688 168.792969 L 23.800781 170.765625 C 23.617188 170.976562 23.570312 171.273438 23.6875 171.523438 C 23.800781 171.777344 24.054688 171.941406 24.332031 171.941406 L 25.335938 171.941406 L 25.335938 177.953125 C 25.335938 178.425781 25.722656 178.8125 26.191406 178.8125 C 26.667969 178.8125 27.050781 178.425781 27.050781 177.953125 L 27.050781 171.941406 L 28.066406 171.941406 C 28.34375 171.941406 28.597656 171.777344 28.710938 171.523438 C 28.824219 171.273438 28.777344 170.976562 28.59375 170.765625 Z M 26.84375 168.792969 "/>
<path style=" stroke:none;fill-rule:nonzero;fill:rgb(100%,100%,100%);fill-opacity:1;" d="M 812.363281 175.375 L 831.246094 175.375 L 831.246094 178.8125 L 812.363281 178.8125 Z M 812.363281 175.375 "/>
<path style=" stroke:none;fill-rule:evenodd;fill:rgb(76.470588%,81.176471%,87.45098%);fill-opacity:1;" d="M 831.246094 171.941406 C 831.71875 171.941406 832.101562 172.324219 832.101562 172.800781 L 832.101562 177.953125 C 832.101562 178.425781 831.71875 178.8125 831.246094 178.8125 C 830.769531 178.8125 830.386719 178.425781 830.386719 177.953125 L 830.386719 172.800781 C 830.386719 172.324219 830.769531 171.941406 831.246094 171.941406 Z M 812.363281 171.941406 C 812.835938 171.941406 813.222656 172.324219 813.222656 172.800781 L 813.222656 177.953125 C 813.222656 178.425781 812.835938 178.8125 812.363281 178.8125 C 811.890625 178.8125 811.507812 178.425781 811.507812 177.953125 L 811.507812 172.800781 C 811.507812 172.324219 811.890625 171.941406 812.363281 171.941406 Z M 822.449219 168.792969 C 822.285156 168.609375 822.050781 168.503906 821.8125 168.503906 C 821.5625 168.503906 821.328125 168.609375 821.167969 168.792969 L 819.414062 170.765625 C 819.230469 170.976562 819.183594 171.273438 819.296875 171.523438 C 819.410156 171.777344 819.660156 171.941406 819.941406 171.941406 L 820.949219 171.941406 L 820.949219 177.953125 C 820.949219 178.425781 821.332031 178.8125 821.808594 178.8125 C 822.277344 178.8125 822.664062 178.425781 822.664062 177.953125 L 822.664062 171.941406 L 823.675781 171.941406 C 823.953125 171.941406 824.207031 171.777344 824.320312 171.523438 C 824.433594 171.273438 824.390625 170.976562 824.203125 170.765625 Z M 822.449219 168.792969 "/>
<path style=" stroke:none;fill-rule:nonzero;fill:rgb(100%,100%,100%);fill-opacity:1;" d="M 16.753906 3.625 L 35.636719 3.625 L 35.636719 0.1875 L 16.753906 0.1875 Z M 16.753906 3.625 "/>
<path style=" stroke:none;fill-rule:evenodd;fill:rgb(76.470588%,81.176471%,87.45098%);fill-opacity:1;" d="M 35.636719 7.058594 C 36.109375 7.058594 36.492188 6.675781 36.492188 6.199219 L 36.492188 1.046875 C 36.492188 0.574219 36.109375 0.1875 35.636719 0.1875 C 35.164062 0.1875 34.777344 0.574219 34.777344 1.046875 L 34.777344 6.199219 C 34.777344 6.675781 35.164062 7.058594 35.636719 7.058594 Z M 16.753906 7.058594 C 17.230469 7.058594 17.613281 6.675781 17.613281 6.199219 L 17.613281 1.046875 C 17.613281 0.574219 17.230469 0.1875 16.753906 0.1875 C 16.28125 0.1875 15.898438 0.574219 15.898438 1.046875 L 15.898438 6.199219 C 15.898438 6.675781 16.28125 7.058594 16.753906 7.058594 Z M 26.84375 10.207031 C 26.679688 10.390625 26.445312 10.496094 26.195312 10.496094 C 25.953125 10.496094 25.722656 10.390625 25.554688 10.207031 L 23.800781 8.234375 C 23.617188 8.023438 23.570312 7.726562 23.6875 7.476562 C 23.800781 7.222656 24.054688 7.058594 24.332031 7.058594 L 25.335938 7.058594 L 25.335938 1.046875 C 25.335938 0.574219 25.722656 0.1875 26.191406 0.1875 C 26.667969 0.1875 27.050781 0.574219 27.050781 1.046875 L 27.050781 7.058594 L 28.066406 7.058594 C 28.34375 7.058594 28.597656 7.222656 28.710938 7.476562 C 28.824219 7.726562 28.777344 8.023438 28.59375 8.234375 Z M 26.84375 10.207031 "/>
<path style=" stroke:none;fill-rule:nonzero;fill:rgb(100%,100%,100%);fill-opacity:1;" d="M 812.363281 3.625 L 831.246094 3.625 L 831.246094 0.1875 L 812.363281 0.1875 Z M 812.363281 3.625 "/>
<path style=" stroke:none;fill-rule:evenodd;fill:rgb(76.470588%,81.176471%,87.45098%);fill-opacity:1;" d="M 831.246094 7.058594 C 831.71875 7.058594 832.101562 6.675781 832.101562 6.199219 L 832.101562 1.046875 C 832.101562 0.574219 831.71875 0.1875 831.246094 0.1875 C 830.769531 0.1875 830.386719 0.574219 830.386719 1.046875 L 830.386719 6.199219 C 830.386719 6.675781 830.769531 7.058594 831.246094 7.058594 Z M 812.363281 7.058594 C 812.835938 7.058594 813.222656 6.675781 813.222656 6.199219 L 813.222656 1.046875 C 813.222656 0.574219 812.835938 0.1875 812.363281 0.1875 C 811.890625 0.1875 811.507812 0.574219 811.507812 1.046875 L 811.507812 6.199219 C 811.507812 6.675781 811.890625 7.058594 812.363281 7.058594 Z M 822.449219 10.207031 C 822.285156 10.390625 822.050781 10.496094 821.8125 10.496094 C 821.5625 10.496094 821.328125 10.390625 821.167969 10.207031 L 819.414062 8.234375 C 819.230469 8.023438 819.183594 7.726562 819.296875 7.476562 C 819.410156 7.222656 819.660156 7.058594 819.941406 7.058594 L 820.949219 7.058594 L 820.949219 1.046875 C 820.949219 0.574219 821.332031 0.1875 821.808594 0.1875 C 822.277344 0.1875 822.664062 0.574219 822.664062 1.046875 L 822.664062 7.058594 L 823.675781 7.058594 C 823.953125 7.058594 824.207031 7.222656 824.320312 7.476562 C 824.433594 7.726562 824.390625 8.023438 824.203125 8.234375 Z M 822.449219 10.207031 "/>
</g>
</svg>
