<svg width="28" height="28" viewBox="0 0 28 28" fill="none" xmlns="http://www.w3.org/2000/svg">
<g filter="url(#filter0_d_133_16)">
<path d="M13.222 4.20293L13.222 9.18841L8.23656 9.18841C7.7728 9.18841 7.42497 9.53623 7.42497 10C7.42497 10.4638 7.7728 10.8116 8.23656 10.8116L13.222 10.8116L13.222 15.7971C13.222 16.2608 13.5699 16.6087 13.9757 16.5507L14.0916 16.5507C14.5554 16.5507 14.9032 16.2029 14.8452 15.7971V10.8116H19.7148C20.1785 10.8116 20.5264 10.4638 20.5264 10C20.5264 9.53623 20.1785 9.18841 19.7148 9.18841H14.8452V4.20293C14.8452 3.73917 14.4974 3.39134 14.0916 3.44931L13.9757 3.44931C13.5119 3.44931 13.1641 3.79714 13.222 4.20293Z" fill="white"/>
<rect x="5" y="1" width="18" height="18" rx="4" stroke="white" stroke-width="2"/>
</g>
<defs>
<filter id="filter0_d_133_16" x="0" y="0" width="28" height="28" filterUnits="userSpaceOnUse" color-interpolation-filters="sRGB">
<feFlood flood-opacity="0" result="BackgroundImageFix"/>
<feColorMatrix in="SourceAlpha" type="matrix" values="0 0 0 0 0 0 0 0 0 0 0 0 0 0 0 0 0 0 127 0" result="hardAlpha"/>
<feOffset dy="4"/>
<feGaussianBlur stdDeviation="2"/>
<feComposite in2="hardAlpha" operator="out"/>
<feColorMatrix type="matrix" values="0 0 0 0 0 0 0 0 0 0 0 0 0 0 0 0 0 0 0.25 0"/>
<feBlend mode="normal" in2="BackgroundImageFix" result="effect1_dropShadow_133_16"/>
<feBlend mode="normal" in="SourceGraphic" in2="effect1_dropShadow_133_16" result="shape"/>
</filter>
</defs>
</svg>
