<?xml version="1.0" encoding="UTF-8"?>
<svg xmlns="http://www.w3.org/2000/svg" xmlns:xlink="http://www.w3.org/1999/xlink" width="710px" height="150px" viewBox="0 0 711 150" version="1.1">
<g id="surface1">
<path style="fill:none;stroke-width:4;stroke-linecap:butt;stroke-linejoin:miter;stroke:rgb(76.470588%,81.176471%,87.45098%);stroke-opacity:1;stroke-miterlimit:4;" d="M 16.002601 1.998743 L 970.997287 1.998743 C 978.735827 1.998743 985.006336 8.267135 985.006336 16.003407 L 985.006336 191.996794 C 985.006336 199.733066 978.735827 206.001458 970.997287 206.001458 L 16.002601 206.001458 C 8.264062 206.001458 1.993553 199.733066 1.993553 191.996794 L 1.993553 16.003407 C 1.993553 8.267135 8.264062 1.998743 16.002601 1.998743 Z M 16.002601 1.998743 " transform="matrix(0.715776,0,0,0.718511,2.264468,0.274819)"/>
<path style=" stroke:none;fill-rule:nonzero;fill:rgb(76.470588%,81.176471%,87.45098%);fill-opacity:1;" d="M 89.589844 62.785156 C 89.589844 63.183594 89.914062 63.503906 90.300781 63.503906 C 90.703125 63.503906 91.023438 63.183594 91.023438 62.785156 Z M 89.589844 1.710938 L 89.589844 62.785156 L 91.023438 62.785156 L 91.023438 1.710938 Z M 91.023438 113.078125 C 91.023438 112.683594 90.703125 112.359375 90.300781 112.359375 C 89.914062 112.359375 89.589844 112.683594 89.589844 113.078125 Z M 91.023438 148.289062 L 91.023438 113.078125 L 89.589844 113.078125 L 89.589844 148.289062 Z M 645.746094 63.503906 C 645.746094 63.898438 646.066406 64.222656 646.457031 64.222656 C 646.855469 64.222656 647.175781 63.898438 647.175781 63.503906 Z M 645.746094 1.710938 L 645.746094 63.503906 L 647.175781 63.503906 L 647.175781 1.710938 Z M 647.175781 86.496094 C 647.175781 86.101562 646.855469 85.777344 646.457031 85.777344 C 646.066406 85.777344 645.746094 86.101562 645.746094 86.496094 Z M 647.175781 148.289062 L 647.175781 86.496094 L 645.746094 86.496094 L 645.746094 148.289062 Z M 647.175781 148.289062 "/>
<path style=" stroke:none;fill-rule:nonzero;fill:rgb(100%,100%,100%);fill-opacity:1;" d="M 15.867188 146.847656 L 31.609375 146.847656 L 31.609375 149.726562 L 15.867188 149.726562 Z M 15.867188 146.847656 "/>
<path style=" stroke:none;fill-rule:evenodd;fill:rgb(76.470588%,81.176471%,87.45098%);fill-opacity:1;" d="M 31.609375 143.980469 C 32.007812 143.980469 32.324219 144.300781 32.324219 144.699219 L 32.324219 149.011719 C 32.324219 149.40625 32.007812 149.726562 31.609375 149.726562 C 31.21875 149.726562 30.898438 149.40625 30.898438 149.011719 L 30.898438 144.699219 C 30.898438 144.300781 31.21875 143.980469 31.609375 143.980469 Z M 15.867188 143.980469 C 16.265625 143.980469 16.582031 144.300781 16.582031 144.699219 L 16.582031 149.011719 C 16.582031 149.40625 16.265625 149.726562 15.867188 149.726562 C 15.464844 149.726562 15.148438 149.40625 15.148438 149.011719 L 15.148438 144.699219 C 15.148438 144.300781 15.464844 143.980469 15.867188 143.980469 Z M 24.28125 141.347656 C 24.140625 141.191406 23.949219 141.101562 23.738281 141.101562 C 23.539062 141.101562 23.34375 141.191406 23.207031 141.347656 L 21.742188 142.992188 C 21.585938 143.171875 21.550781 143.417969 21.648438 143.625 C 21.742188 143.84375 21.953125 143.980469 22.179688 143.980469 L 23.023438 143.980469 L 23.023438 149.011719 C 23.023438 149.40625 23.34375 149.726562 23.734375 149.726562 C 24.132812 149.726562 24.453125 149.40625 24.453125 149.011719 L 24.453125 143.980469 L 25.296875 143.980469 C 25.535156 143.980469 25.738281 143.84375 25.839844 143.625 C 25.933594 143.417969 25.894531 143.171875 25.738281 142.992188 Z M 24.28125 141.347656 "/>
<path style=" stroke:none;fill-rule:nonzero;fill:rgb(100%,100%,100%);fill-opacity:1;" d="M 679.390625 146.847656 L 695.132812 146.847656 L 695.132812 149.726562 L 679.390625 149.726562 Z M 679.390625 146.847656 "/>
<path style=" stroke:none;fill-rule:evenodd;fill:rgb(76.470588%,81.176471%,87.45098%);fill-opacity:1;" d="M 695.132812 143.980469 C 695.535156 143.980469 695.851562 144.300781 695.851562 144.699219 L 695.851562 149.011719 C 695.851562 149.40625 695.535156 149.726562 695.132812 149.726562 C 694.734375 149.726562 694.417969 149.40625 694.417969 149.011719 L 694.417969 144.699219 C 694.417969 144.300781 694.734375 143.980469 695.132812 143.980469 Z M 679.390625 143.980469 C 679.78125 143.980469 680.101562 144.300781 680.101562 144.699219 L 680.101562 149.011719 C 680.101562 149.40625 679.78125 149.726562 679.390625 149.726562 C 678.992188 149.726562 678.675781 149.40625 678.675781 149.011719 L 678.675781 144.699219 C 678.675781 144.300781 678.992188 143.980469 679.390625 143.980469 Z M 687.800781 141.347656 C 687.660156 141.191406 687.46875 141.101562 687.269531 141.101562 C 687.058594 141.101562 686.867188 141.191406 686.730469 141.347656 L 685.265625 142.992188 C 685.117188 143.171875 685.078125 143.417969 685.171875 143.625 C 685.265625 143.84375 685.472656 143.980469 685.714844 143.980469 L 686.546875 143.980469 L 686.546875 149.011719 C 686.546875 149.40625 686.867188 149.726562 687.265625 149.726562 C 687.65625 149.726562 687.976562 149.40625 687.976562 149.011719 L 687.976562 143.980469 L 688.824219 143.980469 C 689.054688 143.980469 689.265625 143.84375 689.359375 143.625 C 689.453125 143.417969 689.417969 143.171875 689.261719 142.992188 Z M 687.800781 141.347656 "/>
<path style=" stroke:none;fill-rule:nonzero;fill:rgb(100%,100%,100%);fill-opacity:1;" d="M 15.867188 3.152344 L 31.609375 3.152344 L 31.609375 0.273438 L 15.867188 0.273438 Z M 15.867188 3.152344 "/>
<path style=" stroke:none;fill-rule:evenodd;fill:rgb(76.470588%,81.176471%,87.45098%);fill-opacity:1;" d="M 31.609375 6.019531 C 32.007812 6.019531 32.324219 5.699219 32.324219 5.300781 L 32.324219 0.988281 C 32.324219 0.59375 32.007812 0.273438 31.609375 0.273438 C 31.21875 0.273438 30.898438 0.59375 30.898438 0.988281 L 30.898438 5.300781 C 30.898438 5.699219 31.21875 6.019531 31.609375 6.019531 Z M 15.867188 6.019531 C 16.265625 6.019531 16.582031 5.699219 16.582031 5.300781 L 16.582031 0.988281 C 16.582031 0.59375 16.265625 0.273438 15.867188 0.273438 C 15.464844 0.273438 15.148438 0.59375 15.148438 0.988281 L 15.148438 5.300781 C 15.148438 5.699219 15.464844 6.019531 15.867188 6.019531 Z M 24.28125 8.652344 C 24.140625 8.808594 23.949219 8.898438 23.738281 8.898438 C 23.539062 8.898438 23.34375 8.808594 23.207031 8.652344 L 21.742188 7.007812 C 21.585938 6.828125 21.550781 6.582031 21.648438 6.375 C 21.742188 6.15625 21.953125 6.019531 22.179688 6.019531 L 23.023438 6.019531 L 23.023438 0.988281 C 23.023438 0.59375 23.34375 0.273438 23.734375 0.273438 C 24.132812 0.273438 24.453125 0.59375 24.453125 0.988281 L 24.453125 6.019531 L 25.296875 6.019531 C 25.535156 6.019531 25.738281 6.15625 25.839844 6.375 C 25.933594 6.582031 25.894531 6.828125 25.738281 7.007812 Z M 24.28125 8.652344 "/>
<path style=" stroke:none;fill-rule:nonzero;fill:rgb(100%,100%,100%);fill-opacity:1;" d="M 679.390625 3.152344 L 695.132812 3.152344 L 695.132812 0.273438 L 679.390625 0.273438 Z M 679.390625 3.152344 "/>
<path style=" stroke:none;fill-rule:evenodd;fill:rgb(76.470588%,81.176471%,87.45098%);fill-opacity:1;" d="M 695.132812 6.019531 C 695.535156 6.019531 695.851562 5.699219 695.851562 5.300781 L 695.851562 0.988281 C 695.851562 0.59375 695.535156 0.273438 695.132812 0.273438 C 694.734375 0.273438 694.417969 0.59375 694.417969 0.988281 L 694.417969 5.300781 C 694.417969 5.699219 694.734375 6.019531 695.132812 6.019531 Z M 679.390625 6.019531 C 679.78125 6.019531 680.101562 5.699219 680.101562 5.300781 L 680.101562 0.988281 C 680.101562 0.59375 679.78125 0.273438 679.390625 0.273438 C 678.992188 0.273438 678.675781 0.59375 678.675781 0.988281 L 678.675781 5.300781 C 678.675781 5.699219 678.992188 6.019531 679.390625 6.019531 Z M 687.800781 8.652344 C 687.660156 8.808594 687.46875 8.898438 687.269531 8.898438 C 687.058594 8.898438 686.867188 8.808594 686.730469 8.652344 L 685.265625 7.007812 C 685.117188 6.828125 685.078125 6.582031 685.171875 6.375 C 685.265625 6.15625 685.472656 6.019531 685.714844 6.019531 L 686.546875 6.019531 L 686.546875 0.988281 C 686.546875 0.59375 686.867188 0.273438 687.265625 0.273438 C 687.65625 0.273438 687.976562 0.59375 687.976562 0.988281 L 687.976562 6.019531 L 688.824219 6.019531 C 689.054688 6.019531 689.265625 6.15625 689.359375 6.371094 C 689.453125 6.582031 689.417969 6.828125 689.261719 7.007812 Z M 687.800781 8.652344 "/>
</g>
</svg>
