<?xml version="1.0" encoding="UTF-8"?>
<svg xmlns="http://www.w3.org/2000/svg" xmlns:xlink="http://www.w3.org/1999/xlink" width="800px" height="169px" viewBox="0 0 801 169" version="1.1">
<g id="surface1">
<path style="fill:none;stroke-width:4;stroke-linecap:butt;stroke-linejoin:miter;stroke:rgb(76.470588%,81.176471%,87.45098%);stroke-opacity:1;stroke-miterlimit:4;" d="M 15.999903 2.001252 L 970.999985 2.001252 C 978.736133 2.001252 985.004496 8.264594 985.004496 16.0045 L 985.004496 191.9957 C 985.004496 199.735607 978.736133 205.998948 970.999985 205.998948 L 15.999903 205.998948 C 8.263755 205.998948 1.995392 199.735607 1.995392 191.9957 L 1.995392 16.0045 C 1.995392 8.264594 8.263755 2.001252 15.999903 2.001252 Z M 15.999903 2.001252 " transform="matrix(0.806381,0,0,0.809522,2.55111,0.30963)"/>
<path style=" stroke:none;fill-rule:nonzero;fill:rgb(76.470588%,81.176471%,87.45098%);fill-opacity:1;" d="M 100.929688 70.738281 C 100.929688 71.1875 101.296875 71.546875 101.730469 71.546875 C 102.183594 71.546875 102.546875 71.1875 102.546875 70.738281 Z M 100.929688 1.929688 L 100.929688 70.738281 L 102.546875 70.738281 L 102.546875 1.929688 Z M 102.546875 127.402344 C 102.546875 126.957031 102.183594 126.589844 101.730469 126.589844 C 101.296875 126.589844 100.929688 126.957031 100.929688 127.402344 Z M 102.546875 167.070312 L 102.546875 127.402344 L 100.929688 127.402344 L 100.929688 167.070312 Z M 727.488281 71.546875 C 727.488281 71.992188 727.847656 72.359375 728.289062 72.359375 C 728.738281 72.359375 729.097656 71.992188 729.097656 71.546875 Z M 727.488281 1.929688 L 727.488281 71.546875 L 729.097656 71.546875 L 729.097656 1.929688 Z M 729.097656 97.453125 C 729.097656 97.007812 728.738281 96.640625 728.289062 96.640625 C 727.847656 96.640625 727.488281 97.007812 727.488281 97.453125 Z M 729.097656 167.070312 L 729.097656 97.453125 L 727.488281 97.453125 L 727.488281 167.070312 Z M 729.097656 167.070312 "/>
<path style=" stroke:none;fill-rule:nonzero;fill:rgb(100%,100%,100%);fill-opacity:1;" d="M 17.875 165.449219 L 35.609375 165.449219 L 35.609375 168.691406 L 17.875 168.691406 Z M 17.875 165.449219 "/>
<path style=" stroke:none;fill-rule:evenodd;fill:rgb(76.470588%,81.176471%,87.45098%);fill-opacity:1;" d="M 35.609375 162.21875 C 36.058594 162.21875 36.414062 162.578125 36.414062 163.027344 L 36.414062 167.886719 C 36.414062 168.332031 36.058594 168.691406 35.609375 168.691406 C 35.167969 168.691406 34.808594 168.332031 34.808594 167.886719 L 34.808594 163.027344 C 34.808594 162.578125 35.167969 162.21875 35.609375 162.21875 Z M 17.875 162.21875 C 18.324219 162.21875 18.679688 162.578125 18.679688 163.027344 L 18.679688 167.886719 C 18.679688 168.332031 18.324219 168.691406 17.875 168.691406 C 17.421875 168.691406 17.066406 168.332031 17.066406 167.886719 L 17.066406 163.027344 C 17.066406 162.578125 17.421875 162.21875 17.875 162.21875 Z M 27.355469 159.25 C 27.199219 159.074219 26.980469 158.976562 26.746094 158.976562 C 26.519531 158.976562 26.300781 159.074219 26.144531 159.25 L 24.496094 161.105469 C 24.320312 161.304688 24.28125 161.582031 24.386719 161.816406 C 24.496094 162.0625 24.734375 162.21875 24.988281 162.21875 L 25.9375 162.21875 L 25.9375 167.886719 C 25.9375 168.332031 26.300781 168.691406 26.738281 168.691406 C 27.1875 168.691406 27.550781 168.332031 27.550781 167.886719 L 27.550781 162.21875 L 28.496094 162.21875 C 28.765625 162.21875 28.996094 162.0625 29.113281 161.816406 C 29.214844 161.582031 29.171875 161.304688 28.996094 161.105469 Z M 27.355469 159.25 "/>
<path style=" stroke:none;fill-rule:nonzero;fill:rgb(100%,100%,100%);fill-opacity:1;" d="M 765.390625 165.449219 L 783.125 165.449219 L 783.125 168.691406 L 765.390625 168.691406 Z M 765.390625 165.449219 "/>
<path style=" stroke:none;fill-rule:evenodd;fill:rgb(76.470588%,81.176471%,87.45098%);fill-opacity:1;" d="M 783.125 162.21875 C 783.578125 162.21875 783.933594 162.578125 783.933594 163.027344 L 783.933594 167.886719 C 783.933594 168.332031 783.578125 168.691406 783.125 168.691406 C 782.675781 168.691406 782.320312 168.332031 782.320312 167.886719 L 782.320312 163.027344 C 782.320312 162.578125 782.675781 162.21875 783.125 162.21875 Z M 765.390625 162.21875 C 765.832031 162.21875 766.191406 162.578125 766.191406 163.027344 L 766.191406 167.886719 C 766.191406 168.332031 765.832031 168.691406 765.390625 168.691406 C 764.941406 168.691406 764.585938 168.332031 764.585938 167.886719 L 764.585938 163.027344 C 764.585938 162.578125 764.941406 162.21875 765.390625 162.21875 Z M 774.867188 159.25 C 774.703125 159.074219 774.488281 158.976562 774.265625 158.976562 C 774.027344 158.976562 773.8125 159.074219 773.660156 159.25 L 772.011719 161.105469 C 771.839844 161.304688 771.796875 161.582031 771.902344 161.816406 C 772.011719 162.0625 772.238281 162.21875 772.511719 162.21875 L 773.449219 162.21875 L 773.449219 167.886719 C 773.449219 168.332031 773.8125 168.691406 774.261719 168.691406 C 774.699219 168.691406 775.0625 168.332031 775.0625 167.886719 L 775.0625 162.21875 L 776.015625 162.21875 C 776.277344 162.21875 776.515625 162.0625 776.617188 161.816406 C 776.726562 161.582031 776.6875 161.304688 776.511719 161.105469 Z M 774.867188 159.25 "/>
<path style=" stroke:none;fill-rule:nonzero;fill:rgb(100%,100%,100%);fill-opacity:1;" d="M 17.875 3.550781 L 35.609375 3.550781 L 35.609375 0.308594 L 17.875 0.308594 Z M 17.875 3.550781 "/>
<path style=" stroke:none;fill-rule:evenodd;fill:rgb(76.470588%,81.176471%,87.45098%);fill-opacity:1;" d="M 35.609375 6.78125 C 36.058594 6.78125 36.414062 6.421875 36.414062 5.972656 L 36.414062 1.113281 C 36.414062 0.667969 36.058594 0.308594 35.609375 0.308594 C 35.167969 0.308594 34.808594 0.667969 34.808594 1.113281 L 34.808594 5.972656 C 34.808594 6.421875 35.167969 6.78125 35.609375 6.78125 Z M 17.875 6.78125 C 18.324219 6.78125 18.679688 6.421875 18.679688 5.972656 L 18.679688 1.113281 C 18.679688 0.667969 18.324219 0.308594 17.875 0.308594 C 17.421875 0.308594 17.066406 0.667969 17.066406 1.113281 L 17.066406 5.972656 C 17.066406 6.421875 17.421875 6.78125 17.875 6.78125 Z M 27.355469 9.75 C 27.199219 9.925781 26.980469 10.023438 26.746094 10.023438 C 26.519531 10.023438 26.300781 9.925781 26.144531 9.75 L 24.496094 7.894531 C 24.320312 7.695312 24.28125 7.417969 24.386719 7.183594 C 24.496094 6.9375 24.734375 6.78125 24.988281 6.78125 L 25.9375 6.78125 L 25.9375 1.113281 C 25.9375 0.667969 26.300781 0.308594 26.738281 0.308594 C 27.1875 0.308594 27.550781 0.667969 27.550781 1.113281 L 27.550781 6.78125 L 28.496094 6.78125 C 28.765625 6.78125 28.996094 6.9375 29.113281 7.183594 C 29.214844 7.417969 29.171875 7.695312 28.996094 7.894531 Z M 27.355469 9.75 "/>
<path style=" stroke:none;fill-rule:nonzero;fill:rgb(100%,100%,100%);fill-opacity:1;" d="M 765.390625 3.550781 L 783.125 3.550781 L 783.125 0.308594 L 765.390625 0.308594 Z M 765.390625 3.550781 "/>
<path style=" stroke:none;fill-rule:evenodd;fill:rgb(76.470588%,81.176471%,87.45098%);fill-opacity:1;" d="M 783.125 6.78125 C 783.578125 6.78125 783.933594 6.421875 783.933594 5.972656 L 783.933594 1.113281 C 783.933594 0.667969 783.578125 0.308594 783.125 0.308594 C 782.675781 0.308594 782.320312 0.667969 782.320312 1.113281 L 782.320312 5.972656 C 782.320312 6.421875 782.675781 6.78125 783.125 6.78125 Z M 765.390625 6.78125 C 765.832031 6.78125 766.191406 6.421875 766.191406 5.972656 L 766.191406 1.113281 C 766.191406 0.667969 765.832031 0.308594 765.390625 0.308594 C 764.941406 0.308594 764.585938 0.667969 764.585938 1.113281 L 764.585938 5.972656 C 764.585938 6.421875 764.941406 6.78125 765.390625 6.78125 Z M 774.867188 9.75 C 774.703125 9.925781 774.488281 10.023438 774.265625 10.023438 C 774.027344 10.023438 773.8125 9.925781 773.660156 9.75 L 772.011719 7.894531 C 771.839844 7.695312 771.796875 7.417969 771.902344 7.183594 C 772.011719 6.9375 772.238281 6.78125 772.511719 6.78125 L 773.449219 6.78125 L 773.449219 1.113281 C 773.449219 0.667969 773.8125 0.308594 774.261719 0.308594 C 774.699219 0.308594 775.0625 0.667969 775.0625 1.113281 L 775.0625 6.78125 L 776.015625 6.78125 C 776.277344 6.78125 776.515625 6.9375 776.617188 7.175781 C 776.726562 7.417969 776.6875 7.695312 776.511719 7.894531 Z M 774.867188 9.75 "/>
</g>
</svg>
