<svg xmlns="http://www.w3.org/2000/svg" width="987" height="208" fill="none"><rect x="2" y="2" width="983" height="204" rx="14" stroke="#C3CFDF" stroke-width="4"/><path d="M122 87a1 1 0 0 0 2 0h-2Zm0-85v85h2V2h-2ZM124 157a1 1 0 0 0-2 0h2Zm0 49v-49h-2v49h2ZM899 88a1 1 0 0 0 2 0h-2Zm0-86v86h2V2h-2ZM901 120a1 1 0 0 0-2 0h2Zm0 86v-86h-2v86h2Z" fill="#C3CFDF"/><path fill="#fff" d="M19 204h22v4H19z"/><path fill-rule="evenodd" clip-rule="evenodd" d="M41 200a1 1 0 0 1 1 1v6a1 1 0 0 1-2 0v-6a1 1 0 0 1 1-1Zm-22 0a1 1 0 0 1 1 1v6a1 1 0 0 1-2 0v-6a1 1 0 0 1 1-1ZM30.753 196.336a1.002 1.002 0 0 0-1.497 0l-2.043 2.297a.821.821 0 0 0 .614 1.367H29v7a1 1 0 0 0 2 0v-7h1.182a.821.821 0 0 0 .613-1.367l-2.042-2.297Z" fill="#C3CFDF"/><path fill="#fff" d="M946 204h22v4h-22z"/><path fill-rule="evenodd" clip-rule="evenodd" d="M968 200a1 1 0 0 1 1 1v6a1 1 0 0 1-2 0v-6a1 1 0 0 1 1-1Zm-22 0a1 1 0 0 1 1 1v6a1 1 0 0 1-2 0v-6a1 1 0 0 1 1-1ZM957.753 196.336a1.002 1.002 0 0 0-1.497 0l-2.043 2.297a.822.822 0 0 0 .614 1.367H956v7a1 1 0 0 0 2 0v-7h1.182a.821.821 0 0 0 .613-1.367l-2.042-2.297Z" fill="#C3CFDF"/><path fill="#fff" d="M19 4h22V0H19z"/><path fill-rule="evenodd" clip-rule="evenodd" d="M41 8a1 1 0 0 0 1-1V1a1 1 0 1 0-2 0v6a1 1 0 0 0 1 1ZM19 8a1 1 0 0 0 1-1V1a1 1 0 1 0-2 0v6a1 1 0 0 0 1 1ZM30.753 11.664a1.002 1.002 0 0 1-1.497 0l-2.043-2.297A.821.821 0 0 1 27.827 8H29V1a1 1 0 1 1 2 0v7h1.182a.821.821 0 0 1 .613 1.367l-2.042 2.297Z" fill="#C3CFDF"/><path fill="#fff" d="M946 4h22V0h-22z"/><path fill-rule="evenodd" clip-rule="evenodd" d="M968 8a1 1 0 0 0 1-1V1a1 1 0 0 0-2 0v6a1 1 0 0 0 1 1Zm-22 0a1 1 0 0 0 1-1V1a1 1 0 0 0-2 0v6a1 1 0 0 0 1 1ZM957.753 11.664a1.002 1.002 0 0 1-1.497 0l-2.043-2.297A.821.821 0 0 1 954.827 8H956V1a1 1 0 0 1 2 0v7h1.182a.82.82 0 0 1 .613 1.367l-2.042 2.297Z" fill="#C3CFDF"/></svg>