<?xml version="1.0" encoding="UTF-8"?>
<svg xmlns="http://www.w3.org/2000/svg" xmlns:xlink="http://www.w3.org/1999/xlink" width="948px" height="200px" viewBox="0 0 947 200" version="1.1">
<g id="surface1">
<path style="fill:none;stroke-width:4;stroke-linecap:butt;stroke-linejoin:miter;stroke:rgb(76.470588%,81.176471%,87.45098%);stroke-opacity:1;stroke-miterlimit:4;" d="M 16 1.999098 L 971.000507 1.999098 C 978.731804 1.999098 985.001524 8.268564 985.001524 15.999548 L 985.001524 192.000552 C 985.001524 199.731536 978.731804 206.001001 971.000507 206.001001 L 16 206.001001 C 8.268702 206.001001 1.998982 199.731536 1.998982 192.000552 L 1.998982 15.999548 C 1.998982 8.268564 8.268702 1.999098 16 1.999098 Z M 16 1.999098 " transform="matrix(0.959473,0,0,0.959512,0,0.210748)"/>
<path style=" stroke:none;fill-rule:nonzero;fill:rgb(76.470588%,81.176471%,87.45098%);fill-opacity:1;" d="M 117.058594 83.6875 C 117.058594 84.21875 117.484375 84.648438 118.015625 84.648438 C 118.546875 84.648438 118.976562 84.21875 118.976562 83.6875 Z M 117.058594 2.128906 L 117.058594 83.6875 L 118.976562 83.6875 L 118.976562 2.128906 Z M 118.976562 150.855469 C 118.976562 150.324219 118.546875 149.894531 118.015625 149.894531 C 117.484375 149.894531 117.058594 150.324219 117.058594 150.855469 Z M 118.976562 197.871094 L 118.976562 150.855469 L 117.058594 150.855469 L 117.058594 197.871094 Z M 862.566406 84.648438 C 862.566406 85.175781 862.996094 85.609375 863.523438 85.609375 C 864.054688 85.609375 864.488281 85.175781 864.488281 84.648438 Z M 862.566406 2.128906 L 862.566406 84.648438 L 864.488281 84.648438 L 864.488281 2.128906 Z M 864.488281 115.351562 C 864.488281 114.824219 864.054688 114.390625 863.523438 114.390625 C 862.996094 114.390625 862.566406 114.824219 862.566406 115.351562 Z M 864.488281 197.871094 L 864.488281 115.351562 L 862.566406 115.351562 L 862.566406 197.871094 Z M 864.488281 197.871094 "/>
<path style=" stroke:none;fill-rule:nonzero;fill:rgb(100%,100%,100%);fill-opacity:1;" d="M 18.230469 195.949219 L 39.339844 195.949219 L 39.339844 199.789062 L 18.230469 199.789062 Z M 18.230469 195.949219 "/>
<path style=" stroke:none;fill-rule:evenodd;fill:rgb(76.470588%,81.176471%,87.45098%);fill-opacity:1;" d="M 39.339844 192.113281 C 39.867188 192.113281 40.296875 192.542969 40.296875 193.074219 L 40.296875 198.832031 C 40.296875 199.359375 39.867188 199.789062 39.339844 199.789062 C 38.808594 199.789062 38.378906 199.359375 38.378906 198.832031 L 38.378906 193.074219 C 38.378906 192.542969 38.808594 192.113281 39.339844 192.113281 Z M 18.230469 192.113281 C 18.761719 192.113281 19.191406 192.542969 19.191406 193.074219 L 19.191406 198.832031 C 19.191406 199.359375 18.761719 199.789062 18.230469 199.789062 C 17.699219 199.789062 17.273438 199.359375 17.273438 198.832031 L 17.273438 193.074219 C 17.273438 192.542969 17.699219 192.113281 18.230469 192.113281 Z M 29.507812 188.597656 C 29.324219 188.390625 29.0625 188.273438 28.785156 188.273438 C 28.515625 188.273438 28.253906 188.390625 28.070312 188.597656 L 26.109375 190.800781 C 25.902344 191.035156 25.851562 191.367188 25.980469 191.644531 C 26.109375 191.929688 26.390625 192.113281 26.699219 192.113281 L 27.824219 192.113281 L 27.824219 198.832031 C 27.824219 199.359375 28.253906 199.789062 28.78125 199.789062 C 29.3125 199.789062 29.742188 199.359375 29.742188 198.832031 L 29.742188 192.113281 L 30.875 192.113281 C 31.1875 192.113281 31.46875 191.929688 31.597656 191.644531 C 31.722656 191.367188 31.671875 191.035156 31.464844 190.800781 Z M 29.507812 188.597656 "/>
<path style=" stroke:none;fill-rule:nonzero;fill:rgb(100%,100%,100%);fill-opacity:1;" d="M 907.660156 195.949219 L 928.769531 195.949219 L 928.769531 199.789062 L 907.660156 199.789062 Z M 907.660156 195.949219 "/>
<path style=" stroke:none;fill-rule:evenodd;fill:rgb(76.470588%,81.176471%,87.45098%);fill-opacity:1;" d="M 928.769531 192.113281 C 929.300781 192.113281 929.726562 192.542969 929.726562 193.074219 L 929.726562 198.832031 C 929.726562 199.359375 929.300781 199.789062 928.769531 199.789062 C 928.238281 199.789062 927.808594 199.359375 927.808594 198.832031 L 927.808594 193.074219 C 927.808594 192.542969 928.238281 192.113281 928.769531 192.113281 Z M 907.660156 192.113281 C 908.191406 192.113281 908.621094 192.542969 908.621094 193.074219 L 908.621094 198.832031 C 908.621094 199.359375 908.191406 199.789062 907.660156 199.789062 C 907.132812 199.789062 906.703125 199.359375 906.703125 198.832031 L 906.703125 193.074219 C 906.703125 192.542969 907.132812 192.113281 907.660156 192.113281 Z M 918.9375 188.597656 C 918.753906 188.390625 918.492188 188.273438 918.222656 188.273438 C 917.945312 188.273438 917.683594 188.390625 917.503906 188.597656 L 915.542969 190.800781 C 915.335938 191.035156 915.285156 191.367188 915.414062 191.644531 C 915.539062 191.929688 915.820312 192.113281 916.132812 192.113281 L 917.257812 192.113281 L 917.257812 198.832031 C 917.257812 199.359375 917.6875 199.789062 918.21875 199.789062 C 918.746094 199.789062 919.175781 199.359375 919.175781 198.832031 L 919.175781 192.113281 L 920.308594 192.113281 C 920.617188 192.113281 920.902344 191.929688 921.027344 191.644531 C 921.15625 191.367188 921.105469 191.035156 920.898438 190.800781 Z M 918.9375 188.597656 "/>
<path style=" stroke:none;fill-rule:nonzero;fill:rgb(100%,100%,100%);fill-opacity:1;" d="M 18.230469 4.050781 L 39.339844 4.050781 L 39.339844 0.210938 L 18.230469 0.210938 Z M 18.230469 4.050781 "/>
<path style=" stroke:none;fill-rule:evenodd;fill:rgb(76.470588%,81.176471%,87.45098%);fill-opacity:1;" d="M 39.339844 7.886719 C 39.867188 7.886719 40.296875 7.457031 40.296875 6.925781 L 40.296875 1.167969 C 40.296875 0.640625 39.867188 0.210938 39.339844 0.210938 C 38.808594 0.210938 38.378906 0.640625 38.378906 1.167969 L 38.378906 6.925781 C 38.378906 7.457031 38.808594 7.886719 39.339844 7.886719 Z M 18.230469 7.886719 C 18.761719 7.886719 19.191406 7.457031 19.191406 6.925781 L 19.191406 1.167969 C 19.191406 0.640625 18.761719 0.210938 18.230469 0.210938 C 17.699219 0.210938 17.273438 0.640625 17.273438 1.167969 L 17.273438 6.925781 C 17.273438 7.457031 17.699219 7.886719 18.230469 7.886719 Z M 29.507812 11.402344 C 29.324219 11.609375 29.0625 11.726562 28.785156 11.726562 C 28.515625 11.726562 28.253906 11.609375 28.070312 11.402344 L 26.109375 9.199219 C 25.902344 8.964844 25.851562 8.632812 25.980469 8.355469 C 26.109375 8.070312 26.390625 7.886719 26.699219 7.886719 L 27.824219 7.886719 L 27.824219 1.167969 C 27.824219 0.640625 28.253906 0.210938 28.78125 0.210938 C 29.3125 0.210938 29.742188 0.640625 29.742188 1.167969 L 29.742188 7.886719 L 30.875 7.886719 C 31.1875 7.886719 31.46875 8.070312 31.597656 8.355469 C 31.722656 8.632812 31.671875 8.964844 31.464844 9.199219 Z M 29.507812 11.402344 "/>
<path style=" stroke:none;fill-rule:nonzero;fill:rgb(100%,100%,100%);fill-opacity:1;" d="M 907.660156 4.050781 L 928.769531 4.050781 L 928.769531 0.210938 L 907.660156 0.210938 Z M 907.660156 4.050781 "/>
<path style=" stroke:none;fill-rule:evenodd;fill:rgb(76.470588%,81.176471%,87.45098%);fill-opacity:1;" d="M 928.769531 7.886719 C 929.300781 7.886719 929.726562 7.457031 929.726562 6.925781 L 929.726562 1.167969 C 929.726562 0.640625 929.300781 0.210938 928.769531 0.210938 C 928.238281 0.210938 927.808594 0.640625 927.808594 1.167969 L 927.808594 6.925781 C 927.808594 7.457031 928.238281 7.886719 928.769531 7.886719 Z M 907.660156 7.886719 C 908.191406 7.886719 908.621094 7.457031 908.621094 6.925781 L 908.621094 1.167969 C 908.621094 0.640625 908.191406 0.210938 907.660156 0.210938 C 907.132812 0.210938 906.703125 0.640625 906.703125 1.167969 L 906.703125 6.925781 C 906.703125 7.457031 907.132812 7.886719 907.660156 7.886719 Z M 918.9375 11.402344 C 918.753906 11.609375 918.492188 11.726562 918.222656 11.726562 C 917.945312 11.726562 917.683594 11.609375 917.503906 11.402344 L 915.542969 9.199219 C 915.335938 8.964844 915.285156 8.632812 915.410156 8.355469 C 915.539062 8.070312 915.820312 7.886719 916.132812 7.886719 L 917.257812 7.886719 L 917.257812 1.167969 C 917.257812 0.640625 917.6875 0.210938 918.21875 0.210938 C 918.746094 0.210938 919.175781 0.640625 919.175781 1.167969 L 919.175781 7.886719 L 920.308594 7.886719 C 920.617188 7.886719 920.902344 8.070312 921.027344 8.351562 C 921.15625 8.632812 921.105469 8.964844 920.898438 9.199219 Z M 918.9375 11.402344 "/>
</g>
</svg>
