<svg xmlns="http://www.w3.org/2000/svg" width="948" height="148" fill="none"><rect x="1" y="1" width="946" height="146" rx="11" stroke="#C3CFDF" stroke-width="2"/><path d="M122 81a1 1 0 0 0 2 0h-2Zm0-79v79h2V2h-2ZM208 81a1 1 0 0 0 2 0h-2Zm0-79v79h2V2h-2ZM294 81a1 1 0 0 0 2 0h-2Zm0-79v79h2V2h-2ZM380 81a1 1 0 0 0 2 0h-2Zm0-79v79h2V2h-2ZM466 81a1 1 0 0 0 2 0h-2Zm0-79v79h2V2h-2ZM552 81a1 1 0 0 0 2 0h-2Zm0-79v79h2V2h-2ZM638 81a1 1 0 0 0 2 0h-2Zm0-79v79h2V2h-2ZM724 81a1 1 0 0 0 2 0h-2Zm0-79v79h2V2h-2ZM810 81a1 1 0 0 0 2 0h-2Zm0-79v79h2V2h-2ZM896 81a1 1 0 0 0 2 0h-2Zm0-79v79h2V2h-2Z" fill="#C3CFDF"/><path fill="#fff" d="M19 144h22v4H19z"/><path fill-rule="evenodd" clip-rule="evenodd" d="M41 140a1 1 0 0 1 1 1v6a1 1 0 0 1-2 0v-6a1 1 0 0 1 1-1Zm-22 0a1 1 0 0 1 1 1v6a1 1 0 0 1-2 0v-6a1 1 0 0 1 1-1ZM30.753 136.336a1.002 1.002 0 0 0-1.497 0l-2.043 2.297a.821.821 0 0 0 .614 1.367H29v7a1 1 0 0 0 2 0v-7h1.182a.821.821 0 0 0 .613-1.367l-2.042-2.297Z" fill="#C3CFDF"/><path fill="#fff" d="M19 4h22V0H19z"/><path fill-rule="evenodd" clip-rule="evenodd" d="M41 8a1 1 0 0 0 1-1V1a1 1 0 1 0-2 0v6a1 1 0 0 0 1 1ZM19 8a1 1 0 0 0 1-1V1a1 1 0 1 0-2 0v6a1 1 0 0 0 1 1ZM30.753 11.664a1.002 1.002 0 0 1-1.497 0l-2.043-2.297A.821.821 0 0 1 27.827 8H29V1a1 1 0 1 1 2 0v7h1.182a.821.821 0 0 1 .613 1.367l-2.042 2.297Z" fill="#C3CFDF"/></svg>