<svg width="20" height="20" viewBox="0 0 20 20" fill="none" xmlns="http://www.w3.org/2000/svg">
<path d="M8.94491 2.46381L8.94491 8.94493L2.46378 8.94493C1.86089 8.94493 1.40871 9.3971 1.40871 10C1.40871 10.6029 1.86089 11.0551 2.46378 11.0551L8.94491 11.0551L8.94491 17.5362C8.94491 18.1391 9.39708 18.5913 9.92461 18.5159L10.0753 18.5159C10.6782 18.5159 11.1304 18.0637 11.055 17.5362L11.055 11.0551L17.3854 11.0551C17.9883 11.0551 18.4405 10.6029 18.4405 10C18.4405 9.3971 17.9883 8.94493 17.3854 8.94493L11.055 8.94493L11.055 2.46381C11.055 1.86091 10.6029 1.40874 10.0753 1.4841L9.92461 1.4841C9.32172 1.4841 8.86954 1.93628 8.94491 2.46381Z" fill="#FFA800"/>
</svg>
