<svg width="155" height="155" viewBox="0 0 155 155" fill="none" xmlns="http://www.w3.org/2000/svg">
<ellipse cx="77.4223" cy="77.5" rx="77.4223" ry="77.5" fill="white"/>
<path fill-rule="evenodd" clip-rule="evenodd" d="M142 76C142 111.899 112.899 141 77 141C41.1015 141 12 111.899 12 76C12 40.1015 41.1015 11 77 11C112.899 11 142 40.1015 142 76ZM100.411 106.926C100.411 106.926 97.9363 107.262 96.5533 108.443C95.4882 109.294 95.3286 110.554 95.1522 111.946C95.1371 112.066 95.1218 112.187 95.1058 112.308L41.5392 111.903C42.1133 110.467 41.6441 108.912 40.6735 108.059C39.5007 106.914 38.3845 106.617 36.6295 106.787L36.7085 79.6856C36.6791 79.6875 36.7315 79.6806 36.8363 79.667H36.8363C37.1637 79.6244 38.0022 79.5153 38.4555 79.3951C40.3723 78.9113 41.3185 77.5742 42.2727 75.4449C42.3742 75.2036 42.4041 74.9525 42.4324 74.7147C42.4627 74.4597 42.4913 74.22 42.6042 74.024L95.1922 74.3679C95.5321 77.635 97.4653 79.2205 100.482 79.7039L100.411 106.926ZM49.7066 90.9998L49.7715 93.7968L59.6874 93.6105L59.6225 90.8135L49.7066 90.9998ZM49.6901 85.2772L49.755 88.0741L71.1719 87.7254L71.107 84.9284L49.6901 85.2772ZM82.454 78.8082C82.4459 79.6003 82.5996 80.0779 83.1011 80.2905C83.918 80.6663 84.8481 79.9999 84.8399 78.9653L84.8559 75.5545L82.4214 75.5831C82.4377 76.739 82.4458 77.7736 82.454 78.8082ZM82.4221 86.5433C82.406 87.214 82.5516 87.5704 82.8752 87.8549C83.7083 88.4732 84.8244 87.8562 84.7515 86.7647L84.7918 84.6311C84.7998 83.839 84.2822 83.3838 83.4329 83.4363C82.2914 83.5068 82.3572 84.9729 82.4052 86.043L82.4053 86.0435C82.4134 86.2243 82.421 86.3937 82.4221 86.5433ZM82.3822 94.157C82.3661 94.8278 82.35 95.4986 83.0375 95.7606C83.9191 96.1932 84.8491 95.5269 84.9057 94.5491L84.8813 92.3586C84.8974 91.6878 84.315 91.1758 83.6437 91.1563C82.9724 91.1369 82.4629 91.7164 82.4468 92.3872C82.3941 92.7871 82.393 93.1839 82.3918 93.5638V93.5639C82.3913 93.7671 82.3907 93.9655 82.3822 94.157ZM83.4666 103.102L83.8306 103.079C84.4372 103.042 84.8982 102.648 84.9224 102.098L84.898 99.9079C84.9222 99.3584 84.4045 98.9033 83.8546 98.8764L83.4906 98.8989C83.0053 98.9288 82.6009 99.2583 82.5767 99.8078L82.5526 102.184C82.585 102.669 82.9166 103.075 83.4666 103.102ZM82.4963 106.815C82.2133 108.05 82.3995 110.84 82.3995 110.84L84.8987 110.868L84.8904 107.093C84.8822 106.059 83.6204 105.406 82.8764 106.122C82.7066 106.315 82.6014 106.565 82.4963 106.815ZM99.4968 68.5614L99.8205 71.5859C99.9743 72.9769 100.387 73.6821 102.166 73.8766L105.118 74.3032L105.103 80.4541L114.913 80.5178C114.933 80.3824 114.952 80.2471 114.971 80.1123C115.15 78.8395 115.323 77.6099 116.369 76.7745C117.752 75.593 120.227 75.2575 120.227 75.2575L120.427 48.1489C117.41 47.6655 115.477 46.08 115.137 42.8129L62.4845 42.4121C62.3715 42.6081 62.343 42.8478 62.3126 43.1028C62.2843 43.3406 62.2544 43.5917 62.153 43.8331C61.1987 45.9623 60.2525 47.2994 58.3357 47.7832C57.7646 47.9347 56.6412 48.1203 56.5887 48.081L56.5887 48.0738C56.5861 48.0767 56.5862 48.0791 56.5887 48.081L56.5335 68.2318L99.4968 68.5614ZM69.6518 62.1849L69.5869 59.388L79.5027 59.2016L79.5676 61.9986L69.6518 62.1849ZM103.427 67.2226L103.791 67.2001C104.341 67.227 104.859 67.6822 104.835 68.2317L104.859 70.4222C104.835 70.9717 104.382 71.4868 103.832 71.4599L103.468 71.4824C102.918 71.4555 102.587 71.0497 102.554 70.5646L102.578 68.1884C102.481 67.6464 102.877 67.1957 103.427 67.2226ZM103.581 59.4801C104.252 59.4995 104.834 60.0115 104.818 60.6823L104.843 62.8729C104.843 63.7862 103.848 64.3957 103.031 64.0199C102.452 63.7206 102.418 63.1317 102.385 62.5684L102.385 62.5673C102.382 62.5167 102.379 62.4663 102.376 62.4163C102.384 62.2249 102.385 62.0265 102.385 61.8233V61.8232C102.386 61.4433 102.388 61.0465 102.44 60.6465C102.343 60.1045 102.853 59.525 103.581 59.4801ZM103.378 51.8813C104.227 51.8288 104.745 52.284 104.737 53.0761L104.696 55.2097C104.705 56.2443 103.532 56.9257 102.755 56.243C102.432 55.9585 102.286 55.6022 102.302 54.9314C102.301 54.8045 102.297 54.6642 102.292 54.5154C102.257 53.4506 102.207 51.9536 103.378 51.8813ZM104.801 43.9995L104.785 47.4103C104.785 48.3236 103.855 48.99 103.038 48.6142C102.536 48.4017 102.383 47.924 102.391 47.132L102.391 47.1287V47.1282C102.383 46.0948 102.374 45.0613 102.358 43.9068L104.801 43.9995ZM90.9872 53.3165L91.0521 56.1135L69.6352 56.4622L69.5703 53.6653L90.9872 53.3165Z" fill="#FDC354"/>
</svg>
