<svg width="155" height="155" viewBox="0 0 155 155" fill="none" xmlns="http://www.w3.org/2000/svg">
<ellipse cx="77.4223" cy="77.5" rx="77.4223" ry="77.5" fill="white"/>
<path fill-rule="evenodd" clip-rule="evenodd" d="M141.198 77.5001C141.198 112.68 112.679 141.199 77.4994 141.199C42.3196 141.199 13.8008 112.68 13.8008 77.5001C13.8008 42.3204 42.3196 13.8015 77.4994 13.8015C112.679 13.8015 141.198 42.3204 141.198 77.5001ZM60.0897 108.5V102.767H74.3157V97.0344H37.1582C37.2644 79.942 37.2644 62.8495 37.2644 45.6509H117.312V97.0344H80.1548V102.767H94.3808V108.5H60.0897ZM42.9972 91.3016H111.579V51.2776H42.9972V91.3016ZM102.343 81.3221C102.237 81.3221 100.432 81.5344 99.2646 82.4899C98.4153 83.2331 98.3092 84.2947 98.203 85.4625L55.9496 85.2502C56.3742 84.1885 55.9496 83.0207 55.2064 82.2776C54.2509 81.4283 53.4016 81.216 52.0215 81.3221L52.1276 59.9831C52.0923 59.9831 52.1866 59.9713 52.3439 59.9516C52.6585 59.9123 53.2247 59.8415 53.5078 59.7707C54.9941 59.4523 55.7372 58.3906 56.4804 56.692C56.6137 56.4254 56.6633 56.1588 56.708 55.9185C56.7345 55.776 56.7594 55.6427 56.7989 55.5242L98.3092 55.7365C98.6276 58.2844 100.114 59.5584 102.45 59.8769L102.343 81.3221ZM62.4256 68.7947V71.0242L70.2818 70.8118V68.5824L62.4256 68.7947ZM62.4256 64.3358V66.5653L79.3057 66.2468V64.0173L62.4256 64.3358ZM88.2235 59.1338C88.2235 59.7707 88.3297 60.0892 88.7544 60.3016C89.3913 60.6201 90.1345 60.0892 90.1345 59.3461V56.5858H88.2235V59.1338ZM88.2235 65.2913C88.2235 65.8221 88.2235 66.1406 88.542 66.3529C89.179 66.7776 90.0283 66.2468 90.1345 65.5036V63.805C90.1345 63.168 89.7098 62.8495 89.0729 62.8495C88.1549 62.9413 88.1894 64.065 88.2156 64.9165C88.2196 65.0497 88.2235 65.1764 88.2235 65.2913ZM88.1174 71.2365C88.1174 71.7673 88.1174 72.2981 88.6482 72.5105C89.2852 72.829 90.1345 72.4043 90.0283 71.555V69.8564C90.0283 69.3255 89.6037 68.9009 89.0729 68.9009C88.542 68.9009 88.1174 69.3255 88.1174 69.8564V71.2365ZM88.9667 78.3495H89.2852C89.7098 78.3495 90.1345 77.9249 90.1345 77.5002V75.8016C90.1345 75.3769 89.7098 74.9523 89.2852 74.9523H88.9667C88.542 74.9523 88.2235 75.2707 88.2235 75.6954V77.6064C88.2235 78.031 88.542 78.3495 88.9667 78.3495ZM88.2235 81.3221C87.905 82.2776 88.1174 84.507 88.1174 84.507H90.1345V81.5344C90.1345 80.7913 89.179 80.2605 88.542 80.7913C88.3297 80.8975 88.2235 81.1098 88.2235 81.3221Z" fill="#FFB628" fill-opacity="0.79"/>
</svg>
